<svg xmlns="http://www.w3.org/2000/svg" viewBox="0 0 26 16" width="26" height="16">
	<style>
		tspan { white-space:pre }
		.shp0 { fill: #000000 } 
	</style>
	<path id="Layer" class="shp0" d="M1 0C0.73 0 0.47 0.1 0.28 0.29C0.09 0.48 -0.01 0.73 -0.01 1C-0.01 1.27 0.09 1.52 0.28 1.71C0.47 1.9 0.73 2 1 2L25 2C25.27 2 25.53 1.9 25.72 1.71C25.91 1.52 26.01 1.27 26.01 1C26.01 0.73 25.91 0.48 25.72 0.29C25.53 0.1 25.27 0 25 0L1 0ZM1 7C0.73 7 0.47 7.1 0.28 7.29C0.09 7.48 -0.01 7.73 -0.01 8C-0.01 8.27 0.09 8.52 0.28 8.71C0.47 8.9 0.73 9 1 9L25 9C25.27 9 25.53 8.9 25.72 8.71C25.91 8.52 26.01 8.27 26.01 8C26.01 7.73 25.91 7.48 25.72 7.29C25.53 7.1 25.27 7 25 7L1 7ZM1 14C0.73 14 0.47 14.1 0.28 14.29C0.09 14.48 -0.01 14.73 -0.01 15C-0.01 15.27 0.09 15.52 0.28 15.71C0.47 15.9 0.73 16 1 16L25 16C25.27 16 25.53 15.9 25.72 15.71C25.91 15.52 26.01 15.27 26.01 15C26.01 14.73 25.91 14.48 25.72 14.29C25.53 14.1 25.27 14 25 14L1 14Z" />
</svg>